<svg id="Layer_1" data-name="Layer 1" xmlns="http://www.w3.org/2000/svg" viewBox="0 0 360 360"><path d="M133.49,282.94l10.43-9.49c1.36-1.22,2.11-2.39,2.11-3.8,0-1.69-1.17-2.63-2.91-2.63a2.93,2.93,0,0,0-3,3h-6.58c0-4.55,3.2-8.78,9.68-8.78,6,0,9.82,3.1,9.82,8,0,3.81-2.07,6.16-4.79,8.41l-4.18,3.43h9.2V287H133.49Z"/><path d="M155.38,274.44c0-7.33,5.36-13.2,13.48-13.2s13.49,5.87,13.49,13.2-5.36,13.2-13.49,13.2S155.38,281.77,155.38,274.44Zm20.2,0a6.72,6.72,0,1,0-6.72,6.91A6.54,6.54,0,0,0,175.58,274.44Z"/><path d="M184.36,282.94l10.43-9.49c1.37-1.22,2.12-2.39,2.12-3.8,0-1.69-1.18-2.63-2.91-2.63a2.92,2.92,0,0,0-3,3h-6.58c0-4.55,3.19-8.78,9.68-8.78,6,0,9.82,3.1,9.82,8,0,3.81-2.07,6.16-4.8,8.41L195,281.11h9.21V287H184.36Z"/><path d="M206.68,282.94l10.43-9.49c1.36-1.22,2.11-2.39,2.11-3.8,0-1.69-1.17-2.63-2.91-2.63a2.93,2.93,0,0,0-3,3h-6.58c0-4.55,3.2-8.78,9.68-8.78,6,0,9.82,3.1,9.82,8,0,3.81-2.07,6.16-4.79,8.41l-4.19,3.43h9.21V287H206.68Z"/><path d="M180,106.72a69.14,69.14,0,1,0,69.14,69.14A69.14,69.14,0,0,0,180,106.72Zm0,130.55a61.41,61.41,0,1,1,61.4-61.41A61.41,61.41,0,0,1,180,237.27Zm-15.4-56.72a8.46,8.46,0,1,1-8.46-8.46A8.45,8.45,0,0,1,164.62,180.55Zm47.71,0a8.47,8.47,0,1,1-8.46-8.46A8.46,8.46,0,0,1,212.33,180.55ZM220,162.93l7.8-8.5h-17.3a54.08,54.08,0,0,0-60.82,0H132.29l7.8,8.5a23.85,23.85,0,1,0,32.28,35.12l7.65,8.31,7.64-8.31A23.85,23.85,0,1,0,220,162.93Zm-63.79,33.76a16.14,16.14,0,1,1,16.14-16.14A16.14,16.14,0,0,1,156.16,196.69ZM180,180.09c0-10.62-7.73-19.74-17.92-23.64a46.56,46.56,0,0,1,35.83,0C187.74,160.35,180,169.47,180,180.09Zm23.85,16.6A16.14,16.14,0,1,1,220,180.55,16.14,16.14,0,0,1,203.87,196.69Z"/><path d="M141.54,252.31s-8.37-6.45-23.46-8.22A40.68,40.68,0,0,0,92,250.28S102,254.42,117.36,256,141.54,252.31,141.54,252.31Z"/><path d="M118.07,239.07S110.54,231.3,96.51,226a51.5,51.5,0,0,0-27.62-2s8.63,8.19,23.56,13.88S118.07,239.07,118.07,239.07Z"/><path d="M95.66,220.66s-4.39-10.72-16.07-21.5A53,53,0,0,0,53.28,186.5S58.57,198.07,71,209.55,95.66,220.66,95.66,220.66Z"/><path d="M91.27,200.09s-1.46-11.55-9.91-25a52.45,52.45,0,0,0-22-19S61.44,168.66,70.44,183,91.27,200.09,91.27,200.09Z"/><path d="M91.82,172.52s-.4-11.82-7.49-26.21a52.45,52.45,0,0,0-19.91-21.26,85,85,0,0,0,8.5,28.27C80.48,168.64,91.82,172.52,91.82,172.52Z"/><path d="M125.32,231.24s-3.51-8.79-13-17.68A43.28,43.28,0,0,0,91,203a66.16,66.16,0,0,0,14.32,19C115.35,231.45,125.32,231.24,125.32,231.24Z"/><path d="M149.17,244.34a44.14,44.14,0,0,0-13.74-8.2,34.33,34.33,0,0,0-17.3-1.78,52.84,52.84,0,0,0,15,8.7C142.59,246.74,149.17,244.34,149.17,244.34Z"/><path d="M172.34,249a33,33,0,0,0-12.61-1.83,25.92,25.92,0,0,0-13.15,4.37,39.68,39.68,0,0,0,13.69,1.8C168.31,253.1,172.34,249,172.34,249Z"/><path d="M114.87,210s-1.63-9.36-9.05-20a42.85,42.85,0,0,0-18.71-14.66,66.61,66.61,0,0,0,10.11,21.54C105.12,208.19,114.87,210,114.87,210Z"/><path d="M105.55,181.45s1.81-9.49-1.24-22.23a42.84,42.84,0,0,0-12-20.53A69.35,69.35,0,0,0,94,162.74C97.22,176.31,105.55,181.45,105.55,181.45Z"/><path d="M218.49,252.31s8.38-6.45,23.47-8.22a40.66,40.66,0,0,1,26.1,6.19S258,254.42,242.68,256,218.49,252.31,218.49,252.31Z"/><path d="M242,239.07s7.54-7.77,21.56-13.12a51.54,51.54,0,0,1,27.63-2s-8.63,8.19-23.56,13.88S242,239.07,242,239.07Z"/><path d="M264.38,220.66s4.39-10.72,16.07-21.5a53,53,0,0,1,26.31-12.66s-5.3,11.57-17.73,23.05S264.38,220.66,264.38,220.66Z"/><path d="M268.77,200.09s1.45-11.55,9.91-25a52.45,52.45,0,0,1,22-19s-2.1,12.59-11.11,26.92S268.77,200.09,268.77,200.09Z"/><path d="M268.22,172.52s.4-11.82,7.49-26.21a52.45,52.45,0,0,1,19.91-21.26,84.89,84.89,0,0,1-8.51,28.27C279.56,168.64,268.22,172.52,268.22,172.52Z"/><path d="M234.72,231.24s3.51-8.79,13-17.68A43.33,43.33,0,0,1,269.09,203a66.16,66.16,0,0,1-14.32,19C244.69,231.45,234.72,231.24,234.72,231.24Z"/><path d="M210.86,244.34a44.12,44.12,0,0,1,13.75-8.2,34.3,34.3,0,0,1,17.29-1.78,52.68,52.68,0,0,1-15,8.7C217.45,246.74,210.86,244.34,210.86,244.34Z"/><path d="M187.7,249a33,33,0,0,1,12.61-1.83,25.86,25.86,0,0,1,13.14,4.37,39.59,39.59,0,0,1-13.68,1.8C191.72,253.1,187.7,249,187.7,249Z"/><path d="M245.16,210s1.64-9.36,9.06-20a42.85,42.85,0,0,1,18.71-14.66,66.61,66.61,0,0,1-10.11,21.54C254.91,208.19,245.16,210,245.16,210Z"/><path d="M254.49,181.45s-1.81-9.49,1.24-22.23a42.84,42.84,0,0,1,12-20.53,69.35,69.35,0,0,1-1.67,24.05C262.82,176.31,254.49,181.45,254.49,181.45Z"/><circle cx="180.02" cy="252.42" r="3.84"/><path d="M100.38,30h-9v26.5h-7V30h-9V23.63h24.9Z"/><path d="M112.64,33.31v6.25h-3.48c-2.54,0-3.76,1.22-3.76,3.76v13.2H98.82V33.31h6.11v4.32a4.7,4.7,0,0,1,4.84-4.32Z"/><path d="M113.36,44.92c0-6.82,4.84-12.27,11.51-12.27a9.86,9.86,0,0,1,7.28,2.63v-2h6.11V56.52h-6.11V53.7c-1.5,2-3.71,3.48-7.47,3.48C118.15,57.18,113.36,51.73,113.36,44.92Zm18.79,0a6.11,6.11,0,1,0-12.21,0,6.11,6.11,0,1,0,12.21,0Z"/><path d="M140.84,33.31h7l3.52,12.26c.43,1.41.66,2.35.9,3.43.23-1.08.47-2,.89-3.43l3.52-12.26h7.05l-7.71,23.21h-7.51Z"/><path d="M187.29,46.47H170.05a5.52,5.52,0,0,0,5.55,5.26c2.67,0,4.65-1.41,5.21-3.53h6.3c-1.13,5.69-5.31,9-11.51,9-7.29,0-12.08-5.36-12.08-12.26a11.93,11.93,0,0,1,12-12.27c7.33,0,11.74,4.47,11.74,12.78Zm-16.91-4.94h10.76c-.66-2.3-2.49-3.8-5.5-3.8A5.53,5.53,0,0,0,170.38,41.53Z"/><path d="M190.22,23.63h6.58V56.52h-6.58Z"/><path d="M200.7,23.63h6.58V56.52H200.7Z"/><path d="M233.73,46.47H216.48A5.52,5.52,0,0,0,222,51.73c2.68,0,4.65-1.41,5.21-3.53h6.3c-1.13,5.69-5.31,9-11.51,9-7.28,0-12.08-5.36-12.08-12.26a11.93,11.93,0,0,1,12-12.27c7.33,0,11.75,4.47,11.75,12.78Zm-16.92-4.94h10.76c-.66-2.3-2.49-3.8-5.5-3.8A5.53,5.53,0,0,0,216.81,41.53Z"/><path d="M250.5,33.31v6.25H247c-2.54,0-3.76,1.22-3.76,3.76v13.2h-6.58V33.31h6.11v4.32a4.7,4.7,0,0,1,4.84-4.32Z"/><path d="M252.28,48.91H259a2.47,2.47,0,0,0,2.58,2.68c1.55,0,2.49-.76,2.49-1.93s-1-2-3.14-2.58l-3.06-.9c-3-.89-5.17-3-5.17-6.43,0-4.28,3.86-7.1,8.65-7.1,5.45,0,8.45,3.1,8.45,7.43h-6.2a2.22,2.22,0,0,0-2.3-2.21c-1.31,0-2.21.75-2.21,1.64,0,1.08.85,1.6,2.68,2.12l3.38.94c3.11.84,5.27,3,5.27,6.43,0,4.37-3.43,8.18-8.93,8.18C256.37,57.18,252.28,54,252.28,48.91Z"/><path d="M272.83,34.3h.62c1.59,0,3.05-.85,3.33-3.24a2,2,0,0,1-.94.18,4,4,0,0,1-4.09-4.13A4.12,4.12,0,0,1,275.89,23c3,0,4.6,2.73,4.6,6.3,0,5.73-2.77,8.41-6.67,8.41h-1Z"/><path d="M105.13,82.33c0-10.1,7.52-17.1,16.59-17.1,8.83,0,14.37,4.88,15.64,12.68h-7.09c-1-3.85-4.14-6.2-8.55-6.2-5.31,0-9.64,4.32-9.64,10.62S116.41,93,121.72,93c4.36,0,7.51-2.26,8.55-6.25h7.23c-1.41,7.89-7.61,12.73-15.78,12.73C112.51,99.43,105.13,92.43,105.13,82.33Z"/><path d="M140.33,65.88h6.58V78.71c1-1.93,3.67-3.8,7.38-3.8,4.6,0,7.84,3.24,7.84,8.55V98.77h-6.57V85.33a4.33,4.33,0,1,0-8.65,0V98.77h-6.58Z"/><path d="M164.67,87.17c0-6.82,5-12.26,12.54-12.26s12.55,5.44,12.55,12.26-5,12.26-12.55,12.26S164.67,94,164.67,87.17Zm18.51,0a6,6,0,1,0-6,6.15A5.83,5.83,0,0,0,183.18,87.17Z"/><path d="M191.43,68.47a4.14,4.14,0,1,1,4.13,4.13A4.11,4.11,0,0,1,191.43,68.47Zm.84,7.09h6.58V98.77h-6.58Z"/><path d="M201.43,87.17a11.89,11.89,0,0,1,12.26-12.26c7.33,0,11.27,3.89,12,9.34h-6.86c-.66-1.92-2.3-3.24-5.12-3.24a6.17,6.17,0,0,0,0,12.31c2.77,0,4.37-1.22,5.12-3.24h6.86c-1.08,5.68-4.89,9.35-12,9.35A11.9,11.9,0,0,1,201.43,87.17Z"/><path d="M250.6,88.72H233.36A5.52,5.52,0,0,0,238.91,94c2.67,0,4.65-1.41,5.21-3.52h6.3c-1.13,5.68-5.31,9-11.51,9-7.29,0-12.08-5.36-12.08-12.26a11.93,11.93,0,0,1,12-12.26c7.33,0,11.74,4.46,11.74,12.77Zm-16.91-4.94h10.76c-.66-2.3-2.49-3.8-5.5-3.8A5.54,5.54,0,0,0,233.69,83.78Z"/><polygon points="248.35 66.71 252.94 66.71 252.94 67.69 251.18 67.69 251.18 72.88 250.11 72.88 250.11 67.69 248.35 67.69 248.35 66.71"/><path d="M256.79,71.33l-1.67-4.62h-1.28v6.16h1V69.43c0-.33,0-.61-.05-.94l1.59,4.38h.78l1.58-4.38c0,.33-.05.61-.05.94v3.44h1V66.71h-1.29Z"/><path d="M53.13,306.33H63c4.49,0,7.37,2.81,7.37,6.18a5.79,5.79,0,0,1-3.4,5.53c2.69,1,4.71,2.88,4.71,6.44,0,4.75-3.48,8-9.09,8H53.13Zm9.24,10a2.6,2.6,0,1,0,0-5.2h-3.7v5.2Zm-.11,11.11c2.43,0,3.86-1,3.86-3.29s-1.43-3.33-3.86-3.33H58.67v6.62Z"/><path d="M92.38,324.52H78.65a4.41,4.41,0,0,0,4.42,4.19,4,4,0,0,0,4.15-2.81h5c-.89,4.53-4.22,7.15-9.16,7.15-5.8,0-9.62-4.27-9.62-9.77A9.5,9.5,0,0,1,83,313.52c5.84,0,9.35,3.55,9.35,10.17Zm-13.47-3.93h8.57a4.13,4.13,0,0,0-4.38-3A4.41,4.41,0,0,0,78.91,320.59Z"/><path d="M94.14,326.46h5.31a2,2,0,0,0,2.06,2.13c1.23,0,2-.59,2-1.53s-.82-1.57-2.5-2.06l-2.44-.71a5.17,5.17,0,0,1-4.11-5.12c0-3.41,3.07-5.65,6.88-5.65,4.34,0,6.74,2.47,6.74,5.91h-4.94a1.77,1.77,0,0,0-1.84-1.76c-1,0-1.75.6-1.75,1.31s.67,1.27,2.13,1.68l2.69.75c2.47.67,4.19,2.36,4.19,5.13,0,3.48-2.73,6.51-7.11,6.51C97.39,333.05,94.14,330.54,94.14,326.46Z"/><path d="M117.6,318.38v7.07a2,2,0,0,0,2.24,2.25h2.1v4.82h-3.78c-3.41,0-5.8-2.28-5.8-6.13v-8H109.7V314h2.66v-4.71h5.24V314h4.34v4.34Z"/><path d="M131.81,323.28a10,10,0,1,1,10,9.77A9.55,9.55,0,0,1,131.81,323.28Zm14.75,0a4.76,4.76,0,1,0-4.76,4.9A4.64,4.64,0,0,0,146.56,323.28Z"/><path d="M160.56,313.4V314h4.34v4.34h-4.34v14.14h-5.24V318.38h-2.66V314h2.66v-1.2c0-4.23,2.77-6.51,6.17-6.51h3.41v4.83h-2.1A2,2,0,0,0,160.56,313.4Z"/><path d="M181.88,318.38v7.07a2,2,0,0,0,2.24,2.25h2.1v4.82h-3.78c-3.4,0-5.8-2.28-5.8-6.13v-8H174V314h2.65v-4.71h5.24V314h4.34v4.34Z"/><path d="M189.12,306.33h5.24v10.22a6.55,6.55,0,0,1,5.88-3c3.66,0,6.24,2.58,6.24,6.81v12.19h-5.23v-10.7a3.45,3.45,0,1,0-6.89,0v10.7h-5.24Z"/><path d="M228,324.52H214.27a4.4,4.4,0,0,0,4.42,4.19,4,4,0,0,0,4.15-2.81h5c-.9,4.53-4.23,7.15-9.16,7.15-5.8,0-9.62-4.27-9.62-9.77a9.5,9.5,0,0,1,9.58-9.76c5.83,0,9.35,3.55,9.35,10.17Zm-13.47-3.93h8.57a4.13,4.13,0,0,0-4.38-3A4.4,4.4,0,0,0,214.53,320.59Z"/><path d="M238.66,306.33h9.84c4.49,0,7.38,2.81,7.38,6.18a5.8,5.8,0,0,1-3.41,5.53c2.69,1,4.71,2.88,4.71,6.44,0,4.75-3.47,8-9.09,8h-9.43Zm9.25,10a2.6,2.6,0,1,0,0-5.2H244.2v5.2Zm-.12,11.11c2.44,0,3.86-1,3.86-3.29s-1.42-3.33-3.86-3.33H244.2v6.62Z"/><path d="M277.92,324.52H264.18a4.41,4.41,0,0,0,4.42,4.19,4,4,0,0,0,4.15-2.81h5c-.9,4.53-4.23,7.15-9.17,7.15-5.8,0-9.62-4.27-9.62-9.77a9.5,9.5,0,0,1,9.58-9.76c5.84,0,9.36,3.55,9.36,10.17Zm-13.47-3.93H273a4.13,4.13,0,0,0-4.37-3A4.4,4.4,0,0,0,264.45,320.59Z"/><path d="M279.67,326.46H285a2,2,0,0,0,2.06,2.13c1.24,0,2-.59,2-1.53s-.82-1.57-2.5-2.06l-2.44-.71a5.17,5.17,0,0,1-4.11-5.12c0-3.41,3.07-5.65,6.88-5.65,4.34,0,6.74,2.47,6.74,5.91h-4.94a1.77,1.77,0,0,0-1.83-1.76c-1.05,0-1.76.6-1.76,1.31s.67,1.27,2.13,1.68l2.69.75c2.47.67,4.2,2.36,4.2,5.13,0,3.48-2.74,6.51-7.11,6.51C282.93,333.05,279.67,330.54,279.67,326.46Z"/><path d="M303.13,318.38v7.07a2,2,0,0,0,2.24,2.25h2.1v4.82h-3.78c-3.4,0-5.8-2.28-5.8-6.13v-8h-2.65V314h2.65v-4.71h5.24V314h4.34v4.34Z"/></svg>